<svg xmlns="http://www.w3.org/2000/svg" viewBox="0 0 1024 1024">
  
  <path fill="#FFFFFF" fill-rule="evenodd" d="
    M 448 128
    h 128
    a 16 16 0 0 1 16 16
    v 32
    a 16 16 0 0 1 -16 16
    h -16
    v 64
    h 8
    q 0 16 16 32
    l 56 64
    q 40 40 40 100
    v 372
    q 0 64 -64 64
    h -256
    q -64 0 -64 -64
    v -372
    q 0 -60 40 -100
    l 56 -64
    q 16 -16 16 -32
    h 8
    v -64
    h -16
    a 16 16 0 0 1 -16 -16
    v -32
    a 16 16 0 0 1 16 -16
    Z

    M 512 528
    C 512 528 432 624 432 692
    C 432 736 468 772 512 772
    C 556 772 592 736 592 692
    C 592 624 512 528 512 528
    Z
  "/>
</svg>
